<svg width="164" height="24" viewBox="0 0 164 24" fill="none" xmlns="http://www.w3.org/2000/svg">
<g clip-path="url(#clip0_411_201)">
<path d="M100.938 23.2787V1.99094H111.167C111.414 1.99094 112.617 2.40138 112.932 2.53002C117.01 4.19169 117.473 10.4494 113.246 12.1754C116.981 13.4618 118.088 17.7393 116.139 21.032C115.63 21.8927 113.852 23.2787 112.859 23.2787H100.938ZM105.553 10.5673H109.936C110.738 10.5673 111.144 10.1278 111.324 9.95776C112.091 9.23336 112.045 7.00045 111.4 6.19795C110.162 4.65727 107.183 5.74922 105.553 5.20554V10.5673ZM105.553 20.0625H110.244C110.645 20.0625 111.187 19.7302 111.353 19.6353C113.095 18.6398 112.989 15.2184 111.301 14.2628C111.194 14.203 110.716 13.9335 110.398 13.9366H105.553V20.0625Z" fill="#252525"/>
<path d="M12.9184 9.0358C12.8937 9.0358 12.8691 9.03273 12.8476 9.02201C12.4677 8.82598 12.3908 7.18576 12.1139 6.58388C11.0911 4.35862 7.36125 4.36016 5.96929 6.28983C4.3543 8.53041 4.45273 16.1266 5.81548 18.5219C7.00442 20.6108 10.8219 20.8513 12.2693 18.9951C13.1137 17.9108 12.6369 17.1359 12.8953 16.0087C12.923 15.8892 12.8322 15.7759 12.7107 15.7759H9.66069C9.5561 15.7759 9.45613 15.7345 9.3823 15.661C9.30847 15.5875 9.26694 15.488 9.26694 15.3838V12.5751C9.26694 12.4985 9.31309 12.4265 9.38691 12.402C9.50381 12.3653 9.61455 12.2535 9.65146 12.2535H17.1881C17.2096 12.2535 17.3711 12.4051 17.4511 12.5031C17.4788 12.5353 17.4926 12.5766 17.4926 12.6195C17.4496 15.7713 17.8279 19.3198 17.5803 22.4455C17.5603 22.6906 17.5111 22.9111 17.4542 23.1393C17.4342 23.222 17.3604 23.2802 17.2742 23.2802H13.4505C13.349 23.2802 13.266 23.1975 13.266 23.0964V21.3949C13.266 21.2464 13.0968 21.156 12.9753 21.2433C12.8061 21.3658 12.6492 21.5205 12.4985 21.6936C11.9709 22.3 11.3357 22.8116 10.6143 23.1684C7.47507 24.7213 3.68369 23.6125 2.04101 21.5144C-0.695241 18.0195 -0.592189 8.13834 1.82107 4.45511C5.09565 -0.542148 15.3962 0.0811693 16.982 6.33272C17.1558 7.01423 17.4419 8.31906 17.0989 8.93778C17.065 8.99751 17.0035 9.0358 16.9343 9.0358H12.9184Z" fill="#252525"/>
<path d="M57.872 0.243507V23.0352C57.872 23.1699 57.7628 23.2787 57.6275 23.2787H53.9637C53.8284 23.2787 53.7192 23.1699 53.7192 23.0352V21.2433C53.7192 21.0136 53.4331 20.9095 53.2839 21.0825C52.2118 22.3184 52.0073 23.2542 50.0954 23.7274C40.2086 26.1717 39.375 9.72803 44.9059 6.46136C47.6683 4.83032 51.7566 5.08149 53.044 8.35429C53.0747 8.43239 53.1409 8.49059 53.2224 8.5059L53.2716 8.51509C53.4223 8.54572 53.5638 8.42933 53.5638 8.27618V0.243507C53.5638 0.108736 53.673 0 53.8084 0H57.6259C57.7613 0 57.8705 0.108736 57.8705 0.243507H57.872ZM49.2203 9.07562C45.8703 9.51515 45.8134 13.7222 46.0303 16.3073C46.2256 18.6275 47.3961 20.4469 49.9509 20.378C53.3746 20.2846 53.9191 16.3977 53.7161 13.7084C53.5069 10.941 52.4226 8.65599 49.2203 9.07562Z" fill="#252525"/>
<path d="M134.699 11.333C134.29 11.212 134.71 9.77857 134.818 9.46002C136.473 4.63123 145.443 4.24836 148.221 7.97601C150.185 10.6132 148.825 16.3885 149.233 19.6031C149.371 19.7409 150.979 19.3535 151.234 19.8313V23.2771H145.235V20.5205C144.948 20.4561 144.937 20.6154 144.798 20.7747C144.403 21.2341 144.217 21.6675 143.699 22.13C139.511 25.8638 131.659 22.8927 134.026 16.7867C135.485 13.0223 140.566 13.7666 143.7 12.7895C144.835 12.4357 144.898 11.9793 144.774 10.7955C144.468 7.89637 138.92 8.32978 138.777 11.3315H134.701L134.699 11.333ZM144.774 14.8555C143.011 16.3134 138.379 15.3057 138.302 18.3013C138.231 21.0182 142.164 20.7762 143.7 19.3764C144.077 19.0334 144.774 18.0165 144.774 17.5356V14.8555Z" fill="#252525"/>
<path d="M133.546 15.4681H121.856C120.95 20.0028 126.763 22.5129 128.855 18.2247H133.238C132.811 24.0613 124.833 25.2528 120.674 22.6952C116.61 20.1973 116.655 12.4403 118.869 8.74175C120.846 5.43986 125.525 4.91915 128.933 6.04786C132.906 7.36341 133.933 11.7297 133.546 15.4681ZM129.239 12.8645C129.404 7.44917 121.692 7.5916 121.856 12.8645H129.239Z" fill="#252525"/>
<path d="M75.2524 15.4681H63.5629C63.4337 17.2262 63.8982 19.427 65.7609 20.0947C67.6235 20.7624 69.9398 20.3229 70.4843 18.2247H74.9448C74.7079 24.2833 65.7485 25.3967 61.8695 22.2847C58.4565 19.5464 58.4042 12.2397 60.576 8.74175C62.7201 5.28824 67.9126 4.76294 71.4102 6.35109C74.6571 7.82592 75.7907 12.2045 75.2524 15.4665V15.4681ZM71.0996 12.8645C70.9073 7.48899 63.5675 7.55331 63.5629 12.8645H71.0996Z" fill="#252525"/>
<path d="M88.0185 23.2787V12.0222C88.0185 11.5275 87.3141 10.2549 86.8665 9.95316C85.7268 9.18282 83.2658 9.29156 82.2507 10.2625C81.9384 10.5627 81.2494 11.7879 81.2494 12.1754V23.2787H76.6351V6.35569L76.8658 6.12596H80.788C80.9248 6.92234 81.1094 7.79835 80.788 8.57482L81.1725 8.57788C82.4614 4.36628 89.8427 4.68789 91.776 8.12609C92.0637 8.63608 92.6312 10.4233 92.6312 10.9502V23.0489L92.4005 23.2787H88.017H88.0185Z" fill="#252525"/>
<path d="M25.0754 5.55625C33.4995 4.60979 36.3019 11.9763 34.1086 18.992C32.0537 25.5637 21.0318 25.7229 18.88 19.1452C17.0943 13.6885 18.3186 6.31434 25.0769 5.55625H25.0754ZM25.8414 9.07562C23.6373 9.36201 22.8206 11.2427 22.6514 13.2489C22.4037 16.1955 22.6129 20.4898 26.572 20.378C29.3605 20.2984 30.1818 18.139 30.3464 15.7039C30.5571 12.5751 29.9127 8.54725 25.8414 9.07562Z" fill="#252525"/>
<path d="M36.0312 23.2787V0.153149H40.4916V23.2787H36.0312Z" fill="#252525"/>
<path d="M157.232 23.2787H152.772V9.80154H149.85V6.12596H156.771V9.49525C157.291 9.46615 157.349 8.71112 157.629 8.2823C158.507 6.93612 159.4 6.152 161.039 5.85795C161.91 5.70174 163.262 5.61138 164 6.04939V10.1844C164 10.2794 163.772 10.3958 163.631 10.4065C163.114 10.4417 162.23 10.0757 161.465 10.1094C159.99 10.1737 158.326 10.7679 157.709 12.1937C157.503 12.67 157.231 13.9948 157.231 14.4741V23.2802L157.232 23.2787Z" fill="#252525"/>
</g>
<defs>
<clipPath id="clip0_411_201">
<rect width="164" height="24" fill="white"/>
</clipPath>
</defs>
</svg>
