<svg width="180" height="43" viewBox="0 0 180 43" fill="none" xmlns="http://www.w3.org/2000/svg">
<path d="M163.5 16.6468L165.307 16.4121V2.70519L163.594 2.3766V0.757115H167.208C167.506 0.757115 167.826 0.749292 168.171 0.733645C168.531 0.717997 168.804 0.70235 168.992 0.686703C169.837 0.624114 170.557 0.592819 171.152 0.592819C172.826 0.592819 174.156 0.757115 175.142 1.08571C176.127 1.39865 176.839 1.89936 177.277 2.58784C177.731 3.26067 177.958 4.15255 177.958 5.26351C177.958 6.32751 177.676 7.32111 177.113 8.24429C176.55 9.16748 175.72 9.80119 174.625 10.1454C175.345 10.4114 175.947 10.9121 176.432 11.6476C176.933 12.3673 177.45 13.2905 177.982 14.4171C178.294 15.0743 178.545 15.5672 178.733 15.8958C178.92 16.2087 179.116 16.3887 179.319 16.4356L180 16.6468V18.1959H175.541C175.306 18.1959 175.063 17.9456 174.813 17.4448C174.563 16.9441 174.242 16.1618 173.851 15.0978C173.366 13.799 172.943 12.7976 172.583 12.0935C172.239 11.3737 171.856 10.9356 171.433 10.7791H169.321V16.4121L171.41 16.6468V18.1959H163.5V16.6468ZM171.128 9.25354C171.942 9.25354 172.575 8.94059 173.029 8.31471C173.483 7.67317 173.71 6.71087 173.71 5.4278C173.71 4.3012 173.483 3.47973 173.029 2.96337C172.591 2.43136 171.848 2.16536 170.799 2.16536C170.236 2.16536 169.743 2.20448 169.321 2.28272V9.18313C169.524 9.23007 169.861 9.25354 170.33 9.25354C170.799 9.25354 171.065 9.25354 171.128 9.25354Z" fill="#252525"/>
<path d="M151.553 0.686752H155.777L161.035 16.4122L162.326 16.6469V18.196H154.932V16.6469L156.599 16.4122L155.801 13.5957H150.191L149.393 16.4356L151.224 16.6469V18.196H144.981L144.957 16.6469L146.319 16.3887L151.553 0.686752ZM153.289 4.77067L152.937 3.12771L152.562 4.79414L150.661 11.7884H155.308L153.289 4.77067Z" fill="#252525"/>
<path d="M131.879 2.7287L130.048 2.40011V0.757156H142.887L143.192 4.91148H141.338L140.516 2.54094L135.892 2.30623V8.40863L138.756 8.33822L139.178 6.41361H140.798V12.3048H139.178L138.779 10.2628L135.892 10.1924V16.5765L141.032 16.2479L142.464 13.2201L144.459 13.7834L143.896 18.1959H130.072V16.6469L131.879 16.4122V2.7287Z" fill="#252525"/>
<path d="M114.351 2.72866L112.591 2.40007V0.757115H116.299C116.831 0.757115 117.535 0.725821 118.411 0.663232C118.599 0.647585 118.834 0.631938 119.116 0.616291C119.397 0.600643 119.726 0.592819 120.101 0.592819C121.807 0.592819 123.145 0.749291 124.115 1.06224C125.085 1.37518 125.758 1.82112 126.133 2.40007C126.524 2.97902 126.72 3.70661 126.72 4.58285C126.72 5.75639 126.352 6.72652 125.617 7.49323C124.897 8.25994 123.974 8.72153 122.847 8.87801C124.412 8.87801 125.64 9.23007 126.532 9.93419C127.44 10.6383 127.894 11.6319 127.894 12.915C127.894 14.5892 127.315 15.9114 126.157 16.8815C125.015 17.8517 123.066 18.3367 120.313 18.3367C119.874 18.3367 119.452 18.3211 119.045 18.2898C118.638 18.2741 118.349 18.2663 118.177 18.2663C117.613 18.2194 117.003 18.1959 116.346 18.1959H112.544V16.6468L114.351 16.3887V2.72866ZM118.318 8.29124C118.599 8.32253 119.233 8.33818 120.219 8.33818C121.079 8.33818 121.713 8.04871 122.12 7.46976C122.527 6.87517 122.73 6.04586 122.73 4.98186C122.73 3.99608 122.511 3.27631 122.073 2.82254C121.635 2.36878 120.923 2.14189 119.937 2.14189C119.702 2.14189 119.428 2.15754 119.116 2.18883C118.803 2.20448 118.537 2.22795 118.318 2.25925V8.29124ZM118.318 16.5295C118.63 16.6547 119.249 16.7172 120.172 16.7172C121.33 16.7172 122.167 16.4121 122.683 15.8019C123.215 15.1916 123.481 14.3076 123.481 13.1497C123.481 12.0544 123.239 11.272 122.753 10.8026C122.268 10.3332 121.502 10.0985 120.453 10.0985C119.593 10.0985 118.881 10.1141 118.318 10.1454V16.5295Z" fill="#252525"/>
<path d="M88.5333 2.70523L86.7025 2.40011V0.757156H92.5937L99.0716 10.7557L100.386 13.5722V2.70523L98.391 2.40011V0.757156H104.4V2.40011L102.616 2.70523V18.1959H99.1655L92.2886 7.4698L90.7395 4.37166V16.3887L93.2274 16.6469V18.1959H86.7025V16.6469L88.5333 16.3887V2.70523Z" fill="#252525"/>
<path d="M72.3566 2.7287L70.5258 2.40011V0.757156H83.3644L83.6695 4.91148H81.8153L80.9938 2.54094L76.3701 2.30623V8.40863L79.2335 8.33822L79.656 6.41361H81.2755V12.3048H79.656L79.257 10.2628L76.3701 10.1924V16.5765L81.5102 16.2479L82.9419 13.2201L84.9369 13.7834L84.3736 18.1959H70.5493V16.6469L72.3566 16.4122V2.7287Z" fill="#252525"/>
<path d="M53.7514 2.72866L52.038 2.40007V0.757115H55.6995C56.2158 0.757115 56.9121 0.725821 57.7884 0.663232C57.9918 0.647585 58.2969 0.631938 58.7037 0.616291C59.1262 0.600643 59.5017 0.592819 59.8303 0.592819C62.6781 0.592819 64.8218 1.30477 66.2613 2.72866C67.7009 4.15256 68.4206 6.19451 68.4206 8.85453C68.4206 10.6853 68.0686 12.3204 67.3644 13.7599C66.6603 15.1995 65.6511 16.3339 64.3367 17.1632C63.0223 17.9768 61.4733 18.3837 59.6895 18.3837C59.2044 18.3837 58.4768 18.3524 57.5067 18.2898C56.5992 18.2272 56.0124 18.1959 55.7464 18.1959H51.9441V16.6468L53.7514 16.3887V2.72866ZM57.7179 16.4591C58.2656 16.6312 58.8915 16.7016 59.5956 16.6703C61.0039 16.6547 62.0913 16.0601 62.8581 14.8865C63.6404 13.6973 64.0316 11.8823 64.0316 9.4413C64.0316 7.18811 63.6482 5.4278 62.8815 4.16038C62.1305 2.87731 60.9413 2.23578 59.314 2.23578C58.9384 2.23578 58.602 2.25925 58.3047 2.30619C58.0074 2.35313 57.8118 2.38442 57.7179 2.40007V16.4591Z" fill="#252525"/>
<path d="M38.0348 2.7287L36.2745 2.40011V0.757156H44.278V2.40011L42.0483 2.7287V16.3652L46.4608 16.1305L47.9864 11.4833L50.1926 11.765L49.512 18.1959H36.2275V16.6469L38.0348 16.4122V2.7287Z" fill="#252525"/>
<path d="M25.9134 18.4541C23.2847 18.4541 21.3366 17.6639 20.0692 16.0836C18.8017 14.4875 18.168 12.2969 18.168 9.51174C18.168 7.71231 18.4966 6.13977 19.1538 4.79411C19.8266 3.4328 20.7655 2.38444 21.9703 1.64902C23.1751 0.913607 24.5834 0.545898 26.195 0.545898C28.8864 0.545898 30.8657 1.29696 32.1331 2.79909C33.4162 4.28558 34.0578 6.41359 34.0578 9.18315C34.0578 11.0139 33.7213 12.6334 33.0485 14.0416C32.3757 15.4342 31.4212 16.5217 30.1851 17.304C28.9646 18.0707 27.5407 18.4541 25.9134 18.4541ZM26.1246 2.09497C24.998 2.09497 24.1218 2.71303 23.4959 3.94916C22.8857 5.18529 22.5805 7.03166 22.5805 9.48827C22.5805 11.9918 22.8857 13.8538 23.4959 15.0743C24.1061 16.2791 24.9746 16.8816 26.1012 16.8816C27.2121 16.8816 28.0727 16.2244 28.6829 14.91C29.3088 13.58 29.6218 11.6789 29.6218 9.20662C29.6218 6.70307 29.3245 4.89582 28.7299 3.78487C28.1353 2.65827 27.2669 2.09497 26.1246 2.09497Z" fill="#252525"/>
<path d="M8.30866 18.4541C6.55617 18.4541 5.05404 18.0707 3.80227 17.304C2.55049 16.5373 1.60384 15.489 0.962302 14.159C0.320767 12.8289 0 11.319 0 9.62909C0 7.68884 0.367709 6.03806 1.10313 4.67676C1.83854 3.31545 2.88691 2.29056 4.24821 1.60208C5.62516 0.89796 7.25247 0.545898 9.13014 0.545898C10.2098 0.545898 11.2816 0.624134 12.3456 0.780606C13.4096 0.937078 14.3094 1.10137 15.0448 1.27349L14.7631 5.80335H11.9466L11.2894 2.70521C11.1486 2.54874 10.8904 2.41574 10.5149 2.30621C10.155 2.18103 9.66214 2.11844 9.03625 2.11844C7.64365 2.11844 6.564 2.7365 5.79728 3.97263C5.03057 5.19311 4.64722 6.96907 4.64722 9.3005C4.64722 11.6163 4.96798 13.4548 5.60952 14.8161C6.2667 16.1618 7.28377 16.8346 8.66072 16.8346C9.22402 16.8346 9.73255 16.7642 10.1863 16.6234C10.6557 16.4669 11.0078 16.2713 11.2425 16.0366V11.1312L9.05972 10.8965V9.18315H16.3826V10.8965L15.2091 11.0843V17.2571C14.9431 17.2727 14.325 17.3979 13.3549 17.6326C12.4004 17.883 11.5398 18.0786 10.7731 18.2194C10.0064 18.3759 9.1849 18.4541 8.30866 18.4541Z" fill="#252525"/>
<path d="M4.64 38.6301C4.08533 38.6301 3.58933 38.5821 3.152 38.4861C2.71467 38.3901 2.23467 38.2621 1.712 38.1021C1.392 37.9848 1.152 37.9208 0.992 37.9101L1.12 35.0141H2.144L2.416 37.0941C2.59733 37.2648 2.89067 37.4194 3.296 37.5581C3.712 37.6861 4.16533 37.7501 4.656 37.7501C5.46667 37.7501 6.08 37.5688 6.496 37.2061C6.92267 36.8434 7.136 36.3421 7.136 35.7021C7.136 35.2861 7.01867 34.9288 6.784 34.6301C6.56 34.3314 6.256 34.0754 5.872 33.8621C5.49867 33.6488 4.98133 33.3981 4.32 33.1101C3.72267 32.8434 3.2 32.5714 2.752 32.2941C2.31467 32.0168 1.93067 31.6488 1.6 31.1901C1.28 30.7208 1.12 30.1608 1.12 29.5101C1.12 28.9234 1.27467 28.4008 1.584 27.9421C1.904 27.4728 2.35733 27.1048 2.944 26.8381C3.54133 26.5714 4.23467 26.4381 5.024 26.4381C5.51467 26.4381 5.94667 26.4754 6.32 26.5501C6.704 26.6248 7.136 26.7261 7.616 26.8541C7.82933 26.9288 8.01067 26.9768 8.16 26.9981L8.064 29.6861H7.088L6.768 27.7181C6.66133 27.6114 6.43733 27.5101 6.096 27.4141C5.76533 27.3181 5.40267 27.2701 5.008 27.2701C4.272 27.2701 3.712 27.4248 3.328 27.7341C2.95467 28.0434 2.768 28.4914 2.768 29.0781C2.768 29.5048 2.88 29.8621 3.104 30.1501C3.33867 30.4381 3.62667 30.6834 3.968 30.8861C4.30933 31.0888 4.85333 31.3661 5.6 31.7181C6.29333 32.0488 6.85867 32.3474 7.296 32.6141C7.73333 32.8808 8.10667 33.2328 8.416 33.6701C8.736 34.0968 8.896 34.6088 8.896 35.2061C8.896 35.7714 8.736 36.3154 8.416 36.8381C8.10667 37.3608 7.62667 37.7928 6.976 38.1341C6.336 38.4648 5.55733 38.6301 4.64 38.6301ZM14.636 38.6301C13.3453 38.6301 12.3587 38.2088 11.676 37.3661C11.004 36.5234 10.668 35.3981 10.668 33.9901C10.668 33.0621 10.844 32.2461 11.196 31.5421C11.548 30.8381 12.0387 30.2941 12.668 29.9101C13.308 29.5261 14.0333 29.3341 14.844 29.3341C15.836 29.3341 16.604 29.6114 17.148 30.1661C17.7027 30.7101 17.996 31.4941 18.028 32.5181C18.028 33.1688 17.9907 33.6648 17.916 34.0061H12.412C12.4333 35.0621 12.6787 35.9154 13.148 36.5661C13.6173 37.2061 14.284 37.5261 15.148 37.5261C15.5747 37.5261 16.0173 37.4514 16.476 37.3021C16.9453 37.1421 17.308 36.9554 17.564 36.7421L17.868 37.4461C17.5587 37.7661 17.1 38.0434 16.492 38.2781C15.884 38.5128 15.2653 38.6301 14.636 38.6301ZM16.268 33.1581C16.3 32.9341 16.316 32.7048 16.316 32.4701C16.3053 31.7768 16.156 31.2328 15.868 30.8381C15.5907 30.4328 15.148 30.2301 14.54 30.2301C13.9213 30.2301 13.4253 30.4541 13.052 30.9021C12.6893 31.3501 12.4813 32.1021 12.428 33.1581H16.268ZM23.7071 42.7741C22.3418 42.7741 21.3498 42.5554 20.7311 42.1181C20.1231 41.6914 19.8191 41.0994 19.8191 40.3421C19.8191 39.8728 19.9631 39.4408 20.2511 39.0461C20.5498 38.6514 20.9018 38.3528 21.3071 38.1501C20.8165 37.8728 20.5711 37.4248 20.5711 36.8061C20.5711 36.4221 20.6831 36.0594 20.9071 35.7181C21.1311 35.3768 21.4245 35.1154 21.7871 34.9341C21.2538 34.6994 20.8431 34.3634 20.5551 33.9261C20.2778 33.4888 20.1391 32.9714 20.1391 32.3741C20.1391 31.7554 20.3098 31.2168 20.6511 30.7581C21.0031 30.2994 21.4618 29.9474 22.0271 29.7021C22.6031 29.4568 23.2111 29.3341 23.8511 29.3341C24.9285 29.3341 25.7711 29.5581 26.3791 30.0061C26.5391 29.8461 26.7845 29.6914 27.1151 29.5421C27.4458 29.3928 27.7978 29.3181 28.1711 29.3181H28.7151V30.7261H26.9551C27.2111 31.1208 27.3391 31.5794 27.3391 32.1021C27.3391 32.7314 27.1791 33.2914 26.8591 33.7821C26.5498 34.2621 26.1125 34.6354 25.5471 34.9021C24.9925 35.1688 24.3631 35.3021 23.6591 35.3021C23.2005 35.3021 22.7898 35.2541 22.4271 35.1581C22.2778 35.3074 22.1551 35.4728 22.0591 35.6541C21.9631 35.8354 21.9151 36.0114 21.9151 36.1821C21.9151 36.5661 22.0431 36.8328 22.2991 36.9821C22.5551 37.1208 23.0138 37.1901 23.6751 37.1901H25.4831C26.5178 37.1901 27.2858 37.3874 27.7871 37.7821C28.2885 38.1768 28.5391 38.7368 28.5391 39.4621C28.5391 40.0701 28.3205 40.6248 27.8831 41.1261C27.4458 41.6381 26.8538 42.0381 26.1071 42.3261C25.3711 42.6248 24.5711 42.7741 23.7071 42.7741ZM23.8191 34.4221C25.0351 34.4221 25.6431 33.7021 25.6431 32.2621C25.6431 31.5474 25.4831 31.0248 25.1631 30.6941C24.8538 30.3528 24.3845 30.1821 23.7551 30.1821C23.1685 30.1821 22.7045 30.3474 22.3631 30.6781C22.0218 30.9981 21.8511 31.5154 21.8511 32.2301C21.8511 32.9021 22.0111 33.4354 22.3311 33.8301C22.6618 34.2248 23.1578 34.4221 23.8191 34.4221ZM23.8511 41.8461C24.3738 41.8461 24.8645 41.7661 25.3231 41.6061C25.7925 41.4568 26.1711 41.2274 26.4591 40.9181C26.7471 40.6194 26.8911 40.2674 26.8911 39.8621C26.8911 39.3821 26.7631 39.0301 26.5071 38.8061C26.2511 38.5928 25.7551 38.4861 25.0191 38.4861H23.1311C22.7045 38.4861 22.3685 38.4594 22.1231 38.4061C21.6858 38.8861 21.4671 39.4248 21.4671 40.0221C21.4671 40.6194 21.6485 41.0728 22.0111 41.3821C22.3738 41.6914 22.9871 41.8461 23.8511 41.8461ZM37.3619 38.5981C37.0632 38.5981 36.8392 38.5394 36.6899 38.4221C36.5512 38.3048 36.4819 38.1128 36.4819 37.8461V37.3021C36.1299 37.6541 35.6872 37.9634 35.1539 38.2301C34.6312 38.4968 34.1032 38.6301 33.5699 38.6301C32.5779 38.6301 31.8739 38.3634 31.4579 37.8301C31.0419 37.2968 30.8339 36.4168 30.8339 35.1901V30.5501L29.9379 30.2941V29.5901L32.1779 29.3821H32.1939L32.4979 29.5741V35.0621C32.4979 35.6808 32.5405 36.1661 32.6259 36.5181C32.7219 36.8594 32.8819 37.1154 33.1059 37.2861C33.3405 37.4461 33.6765 37.5261 34.1139 37.5261C34.5405 37.5261 34.9405 37.4354 35.3139 37.2541C35.6872 37.0728 36.0125 36.8594 36.2899 36.6141V30.5501L35.1379 30.2941V29.5901L37.5699 29.3821H37.5859L37.9539 29.5741V37.6381H38.9139L38.8979 38.3581C38.5992 38.4328 38.3379 38.4914 38.1139 38.5341C37.9005 38.5768 37.6499 38.5981 37.3619 38.5981ZM40.7032 37.6701L41.9032 37.5741V30.8061L40.7512 30.5181V29.6541L42.9592 29.3661H42.9912L43.3432 29.6541V29.9421L43.2952 31.1901H43.3432C43.4499 31.0088 43.6419 30.7741 43.9192 30.4861C44.1966 30.1981 44.5539 29.9368 44.9912 29.7021C45.4286 29.4568 45.9032 29.3341 46.4152 29.3341C46.6286 29.3341 46.8046 29.3608 46.9432 29.4141V31.2061C46.8686 31.1528 46.7459 31.1048 46.5752 31.0621C46.4152 31.0088 46.2339 30.9821 46.0312 30.9821C45.1459 30.9821 44.3246 31.2541 43.5672 31.7981V37.5581L45.5992 37.6861V38.4541H40.7032V37.6701ZM48.4794 33.9901C48.4794 33.0301 48.6767 32.1981 49.0714 31.4941C49.466 30.7901 49.9834 30.2568 50.6234 29.8941C51.274 29.5208 51.9674 29.3341 52.7034 29.3341C54.0474 29.3341 55.0554 29.7608 55.7274 30.6141C56.41 31.4674 56.7514 32.5874 56.7514 33.9741C56.7514 34.9448 56.554 35.7821 56.1594 36.4861C55.7647 37.1901 55.242 37.7234 54.5914 38.0861C53.9514 38.4488 53.2634 38.6301 52.5274 38.6301C51.1834 38.6301 50.17 38.2034 49.4874 37.3501C48.8154 36.4968 48.4794 35.3768 48.4794 33.9901ZM52.6234 37.7181C53.3594 37.7181 53.9247 37.4141 54.3194 36.8061C54.714 36.1981 54.9114 35.2968 54.9114 34.1021C54.9114 32.9181 54.73 31.9794 54.3674 31.2861C54.0047 30.5928 53.4234 30.2461 52.6234 30.2461C51.8874 30.2461 51.3167 30.5501 50.9114 31.1581C50.5167 31.7661 50.3194 32.6674 50.3194 33.8621C50.3194 35.0461 50.506 35.9848 50.8794 36.6781C51.2527 37.3714 51.834 37.7181 52.6234 37.7181ZM66.4266 38.6301C65.7866 38.6301 65.2 38.4701 64.6666 38.1501C64.1333 37.8301 63.7066 37.3394 63.3866 36.6781C63.0773 36.0168 62.9226 35.2008 62.9226 34.2301C62.9226 33.3234 63.1093 32.4968 63.4826 31.7501C63.856 31.0034 64.3893 30.4168 65.0826 29.9901C65.7866 29.5528 66.6133 29.3341 67.5626 29.3341C68.1066 29.3341 68.6026 29.3928 69.0506 29.5101V26.5181L67.4186 26.3261V25.6381L70.2986 25.3501H70.3466L70.6986 25.6061V37.6381H71.6266V38.3741C71.2853 38.4488 70.9866 38.5074 70.7306 38.5501C70.4853 38.5928 70.224 38.6141 69.9466 38.6141C69.6693 38.6141 69.472 38.5661 69.3546 38.4701C69.2373 38.3741 69.1786 38.1714 69.1786 37.8621V37.3501C68.88 37.7128 68.4853 38.0168 67.9946 38.2621C67.5146 38.5074 66.992 38.6301 66.4266 38.6301ZM67.0666 37.4941C67.4826 37.4941 67.872 37.4034 68.2346 37.2221C68.5973 37.0301 68.8693 36.8114 69.0506 36.5661V30.7101C68.9653 30.5821 68.7626 30.4701 68.4426 30.3741C68.1333 30.2674 67.8026 30.2141 67.4506 30.2141C66.6186 30.2141 65.952 30.5341 65.4506 31.1741C64.96 31.8034 64.7146 32.7794 64.7146 34.1021C64.7146 35.2541 64.9333 36.1074 65.3706 36.6621C65.808 37.2168 66.3733 37.4941 67.0666 37.4941ZM77.3241 38.6301C76.0335 38.6301 75.0468 38.2088 74.3641 37.3661C73.6921 36.5234 73.3561 35.3981 73.3561 33.9901C73.3561 33.0621 73.5321 32.2461 73.8841 31.5421C74.2361 30.8381 74.7268 30.2941 75.3561 29.9101C75.9961 29.5261 76.7215 29.3341 77.5321 29.3341C78.5241 29.3341 79.2921 29.6114 79.8361 30.1661C80.3908 30.7101 80.6841 31.4941 80.7161 32.5181C80.7161 33.1688 80.6788 33.6648 80.6041 34.0061H75.1001C75.1215 35.0621 75.3668 35.9154 75.8361 36.5661C76.3055 37.2061 76.9721 37.5261 77.8361 37.5261C78.2628 37.5261 78.7055 37.4514 79.1641 37.3021C79.6335 37.1421 79.9961 36.9554 80.2521 36.7421L80.5561 37.4461C80.2468 37.7661 79.7881 38.0434 79.1801 38.2781C78.5721 38.5128 77.9535 38.6301 77.3241 38.6301ZM78.9561 33.1581C78.9881 32.9341 79.0041 32.7048 79.0041 32.4701C78.9935 31.7768 78.8441 31.2328 78.5561 30.8381C78.2788 30.4328 77.8361 30.2301 77.2281 30.2301C76.6095 30.2301 76.1135 30.4541 75.7401 30.9021C75.3775 31.3501 75.1695 32.1021 75.1161 33.1581H78.9561ZM86.1121 29.5741H89.8241V30.3261L88.6881 30.5341L90.3041 35.1421L90.9761 37.1741L91.5521 35.2061L93.1681 30.5341L92.0801 30.3261V29.5741H95.3281V30.3261L94.4961 30.5341L91.4081 38.5821H90.0481L86.8321 30.5341L86.1121 30.3261V29.5741ZM98.3099 27.9741C97.9685 27.9741 97.7125 27.8781 97.5419 27.6861C97.3712 27.4941 97.2859 27.2488 97.2859 26.9501C97.2859 26.6088 97.3872 26.3261 97.5899 26.1021C97.8032 25.8781 98.0912 25.7661 98.4539 25.7661C98.8165 25.7661 99.0832 25.8621 99.2539 26.0541C99.4245 26.2461 99.5099 26.4914 99.5099 26.7901C99.5099 27.1528 99.4032 27.4408 99.1899 27.6541C98.9872 27.8674 98.6992 27.9741 98.3259 27.9741H98.3099ZM97.6699 30.8061L96.4539 30.5181V29.6701L98.9339 29.3661H98.9659L99.3339 29.6541V37.5421L100.614 37.6701V38.4541H96.3739V37.6701L97.6699 37.5261V30.8061ZM105.686 38.6301C105.046 38.6301 104.459 38.4701 103.926 38.1501C103.393 37.8301 102.966 37.3394 102.646 36.6781C102.337 36.0168 102.182 35.2008 102.182 34.2301C102.182 33.3234 102.369 32.4968 102.742 31.7501C103.115 31.0034 103.649 30.4168 104.342 29.9901C105.046 29.5528 105.873 29.3341 106.822 29.3341C107.366 29.3341 107.862 29.3928 108.31 29.5101V26.5181L106.678 26.3261V25.6381L109.558 25.3501H109.606L109.958 25.6061V37.6381H110.886V38.3741C110.545 38.4488 110.246 38.5074 109.99 38.5501C109.745 38.5928 109.483 38.6141 109.206 38.6141C108.929 38.6141 108.731 38.5661 108.614 38.4701C108.497 38.3741 108.438 38.1714 108.438 37.8621V37.3501C108.139 37.7128 107.745 38.0168 107.254 38.2621C106.774 38.5074 106.251 38.6301 105.686 38.6301ZM106.326 37.4941C106.742 37.4941 107.131 37.4034 107.494 37.2221C107.857 37.0301 108.129 36.8114 108.31 36.5661V30.7101C108.225 30.5821 108.022 30.4701 107.702 30.3741C107.393 30.2674 107.062 30.2141 106.71 30.2141C105.878 30.2141 105.211 30.5341 104.71 31.1741C104.219 31.8034 103.974 32.7794 103.974 34.1021C103.974 35.2541 104.193 36.1074 104.63 36.6621C105.067 37.2168 105.633 37.4941 106.326 37.4941ZM112.647 36.0541C112.647 35.0514 113.149 34.3154 114.151 33.8461C115.154 33.3661 116.423 33.1101 117.959 33.0781V32.6301C117.959 32.1288 117.906 31.7341 117.799 31.4461C117.693 31.1581 117.506 30.9501 117.239 30.8221C116.983 30.6834 116.615 30.6141 116.135 30.6141C115.591 30.6141 115.101 30.6941 114.663 30.8541C114.237 31.0034 113.81 31.1901 113.383 31.4141L112.983 30.5821C113.122 30.4648 113.378 30.3101 113.751 30.1181C114.125 29.9261 114.557 29.7554 115.047 29.6061C115.538 29.4568 116.029 29.3821 116.519 29.3821C117.277 29.3821 117.874 29.4888 118.311 29.7021C118.759 29.9048 119.079 30.2354 119.271 30.6941C119.463 31.1528 119.559 31.7661 119.559 32.5341V37.6701H120.503V38.3741C120.29 38.4274 120.018 38.4808 119.687 38.5341C119.367 38.5874 119.085 38.6141 118.839 38.6141C118.541 38.6141 118.338 38.5661 118.231 38.4701C118.125 38.3848 118.071 38.1874 118.071 37.8781V37.3501C117.751 37.6701 117.357 37.9634 116.887 38.2301C116.429 38.4968 115.906 38.6301 115.319 38.6301C114.551 38.6301 113.911 38.4114 113.399 37.9741C112.898 37.5261 112.647 36.8861 112.647 36.0541ZM116.007 37.5421C116.285 37.5421 116.605 37.4568 116.967 37.2861C117.33 37.1154 117.661 36.9128 117.959 36.6781V33.9261C116.797 33.9261 115.917 34.1074 115.319 34.4701C114.733 34.8221 114.439 35.2861 114.439 35.8621C114.439 36.4381 114.578 36.8648 114.855 37.1421C115.143 37.4088 115.527 37.5421 116.007 37.5421Z" fill="#252525"/>
</svg>
