<svg width="48" height="49" viewBox="0 0 48 49" fill="none" xmlns="http://www.w3.org/2000/svg">
<path d="M20 30.5L13.8495 36.7274C12.9916 37.596 12.5626 38.0304 12.1939 38.061C11.874 38.0876 11.5608 37.959 11.3519 37.7153C11.1111 37.4344 11.1111 36.824 11.1111 35.6031V32.4832C11.1111 31.3879 10.2141 30.5954 9.13041 30.4366V30.4366C6.50749 30.0524 4.44755 27.9925 4.06335 25.3696C4 24.9371 4 24.421 4 23.3889V14.1C4 10.7397 4 9.05953 4.65396 7.77606C5.2292 6.64708 6.14708 5.7292 7.27606 5.15396C8.55953 4.5 10.2397 4.5 13.6 4.5H28.4C31.7603 4.5 33.4405 4.5 34.7239 5.15396C35.8529 5.7292 36.7708 6.64708 37.346 7.77606C38 9.05953 38 10.7397 38 14.1V22.5M38 44.5L33.6472 41.4738C33.0353 41.0484 32.7294 40.8357 32.3964 40.6849C32.1009 40.551 31.7902 40.4536 31.4711 40.3948C31.1117 40.3286 30.7391 40.3286 29.9938 40.3286H26.4C24.1598 40.3286 23.0397 40.3286 22.184 39.8926C21.4314 39.5091 20.8195 38.8972 20.436 38.1445C20 37.2889 20 36.1688 20 33.9286V28.9C20 26.6598 20 25.5397 20.436 24.684C20.8195 23.9314 21.4314 23.3195 22.184 22.936C23.0397 22.5 24.1598 22.5 26.4 22.5H37.6C39.8402 22.5 40.9603 22.5 41.816 22.936C42.5686 23.3195 43.1805 23.9314 43.564 24.684C44 25.5397 44 26.6598 44 28.9V34.3286C44 36.1923 44 37.1242 43.6955 37.8593C43.2895 38.8394 42.5108 39.6181 41.5307 40.0241C40.7957 40.3286 39.8638 40.3286 38 40.3286V44.5Z" stroke="#0266E8" stroke-width="2" stroke-linecap="round" stroke-linejoin="round"/>
</svg>
